<?xml version="1.0" encoding="UTF-8"?>
<svg width="336px" height="138px" viewBox="0 0 336 138" version="1.1" xmlns="http://www.w3.org/2000/svg" xmlns:xlink="http://www.w3.org/1999/xlink">
    <title>Logo-Tagline horizontal</title>
    <defs>
        <path d="M55.2915731,0.434117693 C54.9474462,0.453255132 54.1256731,0.73326608 53.7417423,0.841543695 L53.7417423,0.841543695 C49.3749077,2.67168719 49.2811923,11.6834065 49.2811923,11.6834065 L49.2811923,11.6834065 C49.2907654,11.7947058 49.2081346,18.7209478 49.2343346,19.8500567 L49.2343346,19.8500567 C49.4222692,27.9688633 49.1189538,28.8114143 49.0937615,37.6851425 L49.0937615,37.6851425 C49.0841885,42.5954065 48.7410692,51.1543742 49.0937615,56.2701138 L49.0937615,56.2701138 C49.2418923,58.426601 45.8061654,59.6030499 45.0080731,56.5989756 L45.0080731,56.5989756 C43.4647923,50.7902592 41.8227577,43.2143515 41.4866923,41.3454295 L41.4866923,41.3454295 C40.7949115,37.4967898 39.9167077,31.7842643 39.1856269,27.9225306 L39.1856269,27.9225306 C37.2135731,17.5032023 36.3217654,16.4234479 35.0067269,13.7008954 L35.0067269,13.7008954 C30.4630423,4.29434057 23.6903423,11.8702483 24.2536423,17.5495351 L24.2536423,17.5495351 C24.7086154,22.1354698 27.3860538,38.657123 31.0626192,54.580983 L31.0626192,54.580983 C32.3302962,60.0724207 33.11025,68.8524762 30.7930615,69.6960344 L30.7930615,69.6960344 C27.4465154,70.9142835 26.3199154,68.6147691 23.2681192,63.6395386 L23.2681192,63.6395386 C20.8113654,59.6352813 17.0955,52.567523 14.7218808,48.4796653 L14.7218808,48.4796653 C12.2686538,44.2593564 8.07665385,35.242601 2.37613846,37.087853 L2.37613846,37.087853 C-1.13214231,38.2240125 -1.24248462,42.7636145 6.31520769,56.0606092 L6.31520769,56.0606092 C14.0643615,69.6940199 16.1810192,78.2494624 19.0418577,86.6372004 L19.0418577,86.6372004 C21.9037038,95.0229239 24.3518923,105.629598 28.2919692,116.487576 L28.2919692,116.487576 C30.9925846,123.922471 35.4042615,132.977501 42.8949423,136.153309 L42.8949423,136.153309 C53.2484769,140.53679 60.0136192,136.275184 69.0964538,132.06948 L69.0964538,132.06948 C75.8298538,128.952092 83.6062154,121.462807 88.4910038,115.737187 L88.4910038,115.737187 C94.9956577,108.114947 96.8946538,105.129003 104.595438,98.5119812 L104.595438,98.5119812 C111.222527,92.8160751 117.145742,89.0767202 124.69235,84.6660442 L124.69235,84.6660442 C131.948742,80.4271015 132.393135,75.9831867 128.542742,73.6831687 L128.542742,73.6831687 C123.402504,70.612617 112.718446,74.0588669 106.003688,79.549801 L106.003688,79.549801 C98.7110192,85.5141349 86.3320231,95.7677732 80.3735385,83.6890276 L80.3735385,83.6890276 C78.3939269,79.6757052 77.8301231,78.4000438 77.3373615,74.4577314 L77.3373615,74.4577314 C76.70705,69.4185415 77.8749654,65.848402 78.3233885,64.3581998 L78.3233885,64.3581998 C79.0922577,61.8189638 80.3236577,59.8921259 81.30515,56.7404919 L81.30515,56.7404919 C84.5917385,46.1801509 86.6373538,35.6238389 88.6774269,24.6837709 L88.6774269,24.6837709 C90.6026231,14.3581153 89.1470115,9.38288485 84.8738923,8.58515582 L84.8738923,8.58515582 C81.4341346,7.94304438 79.0685769,10.7683347 76.9856769,17.0338315 L76.9856769,17.0338315 C73.0622269,28.8240047 74.4266423,36.1642197 71.3501577,48.1981435 L71.3501577,48.1981435 C70.4926115,51.5461881 69.2229192,59.6337705 64.8238385,59.1805153 L64.8238385,59.1805153 C61.6309654,58.8521572 59.9400577,55.378712 60.6388923,45.6166037 L60.6388923,45.6166037 C61.1558385,38.3897024 60.1713231,24.7739183 60.6388923,17.8783969 L60.6388923,17.8783969 C61.0747192,11.4305908 59.9188962,0.430088759 55.4427269,0.430088759 L55.4427269,0.430088759 C55.3923423,0.430088759 55.3424615,0.431599609 55.2915731,0.434117693" id="path-1"></path>
        <path d="M55.2915731,0.434117693 C54.9474462,0.453255132 54.1256731,0.73326608 53.7417423,0.841543695 L53.7417423,0.841543695 C49.3749077,2.67168719 49.2811923,11.6834065 49.2811923,11.6834065 L49.2811923,11.6834065 C49.2907654,11.7947058 49.2081346,18.7209478 49.2343346,19.8500567 L49.2343346,19.8500567 C49.4222692,27.9688633 49.1189538,28.8114143 49.0937615,37.6851425 L49.0937615,37.6851425 C49.0841885,42.5954065 48.7410692,51.1543742 49.0937615,56.2701138 L49.0937615,56.2701138 C49.2418923,58.426601 45.8061654,59.6030499 45.0080731,56.5989756 L45.0080731,56.5989756 C43.4647923,50.7902592 41.8227577,43.2143515 41.4866923,41.3454295 L41.4866923,41.3454295 C40.7949115,37.4967898 39.9167077,31.7842643 39.1856269,27.9225306 L39.1856269,27.9225306 C37.2135731,17.5032023 36.3217654,16.4234479 35.0067269,13.7008954 L35.0067269,13.7008954 C30.4630423,4.29434057 23.6903423,11.8702483 24.2536423,17.5495351 L24.2536423,17.5495351 C24.7086154,22.1354698 27.3860538,38.657123 31.0626192,54.580983 L31.0626192,54.580983 C32.3302962,60.0724207 33.11025,68.8524762 30.7930615,69.6960344 L30.7930615,69.6960344 C27.4465154,70.9142835 26.3199154,68.6147691 23.2681192,63.6395386 L23.2681192,63.6395386 C20.8113654,59.6352813 17.0955,52.567523 14.7218808,48.4796653 L14.7218808,48.4796653 C12.2686538,44.2593564 8.07665385,35.242601 2.37613846,37.087853 L2.37613846,37.087853 C-1.13214231,38.2240125 -1.24248462,42.7636145 6.31520769,56.0606092 L6.31520769,56.0606092 C14.0643615,69.6940199 16.1810192,78.2494624 19.0418577,86.6372004 L19.0418577,86.6372004 C21.9037038,95.0229239 24.3518923,105.629598 28.2919692,116.487576 L28.2919692,116.487576 C30.9925846,123.922471 35.4042615,132.977501 42.8949423,136.153309 L42.8949423,136.153309 C53.2484769,140.53679 60.0136192,136.275184 69.0964538,132.06948 L69.0964538,132.06948 C75.8298538,128.952092 83.6062154,121.462807 88.4910038,115.737187 L88.4910038,115.737187 C94.9956577,108.114947 96.8946538,105.129003 104.595438,98.5119812 L104.595438,98.5119812 C111.222527,92.8160751 117.145742,89.0767202 124.69235,84.6660442 L124.69235,84.6660442 C131.948742,80.4271015 132.393135,75.9831867 128.542742,73.6831687 L128.542742,73.6831687 C123.402504,70.612617 112.718446,74.0588669 106.003688,79.549801 L106.003688,79.549801 C98.7110192,85.5141349 86.3320231,95.7677732 80.3735385,83.6890276 L80.3735385,83.6890276 C78.3939269,79.6757052 77.8301231,78.4000438 77.3373615,74.4577314 L77.3373615,74.4577314 C76.70705,69.4185415 77.8749654,65.848402 78.3233885,64.3581998 L78.3233885,64.3581998 C79.0922577,61.8189638 80.3236577,59.8921259 81.30515,56.7404919 L81.30515,56.7404919 C84.5917385,46.1801509 86.6373538,35.6238389 88.6774269,24.6837709 L88.6774269,24.6837709 C90.6026231,14.3581153 89.1470115,9.38288485 84.8738923,8.58515582 L84.8738923,8.58515582 C81.4341346,7.94304438 79.0685769,10.7683347 76.9856769,17.0338315 L76.9856769,17.0338315 C73.0622269,28.8240047 74.4266423,36.1642197 71.3501577,48.1981435 L71.3501577,48.1981435 C70.4926115,51.5461881 69.2229192,59.6337705 64.8238385,59.1805153 L64.8238385,59.1805153 C61.6309654,58.8521572 59.9400577,55.378712 60.6388923,45.6166037 L60.6388923,45.6166037 C61.1558385,38.3897024 60.1713231,24.7739183 60.6388923,17.8783969 L60.6388923,17.8783969 C61.0747192,11.4305908 59.9188962,0.430088759 55.4427269,0.430088759 L55.4427269,0.430088759 C55.3923423,0.430088759 55.3424615,0.431599609 55.2915731,0.434117693" id="path-3"></path>
        <path d="M55.2915731,0.434117693 C54.9474462,0.453255132 54.1256731,0.73326608 53.7417423,0.841543695 L53.7417423,0.841543695 C49.3749077,2.67168719 49.2811923,11.6834065 49.2811923,11.6834065 L49.2811923,11.6834065 C49.2907654,11.7947058 49.2081346,18.7209478 49.2343346,19.8500567 L49.2343346,19.8500567 C49.4222692,27.9688633 49.1189538,28.8114143 49.0937615,37.6851425 L49.0937615,37.6851425 C49.0841885,42.5954065 48.7410692,51.1543742 49.0937615,56.2701138 L49.0937615,56.2701138 C49.2418923,58.426601 45.8061654,59.6030499 45.0080731,56.5989756 L45.0080731,56.5989756 C43.4647923,50.7902592 41.8227577,43.2143515 41.4866923,41.3454295 L41.4866923,41.3454295 C40.7949115,37.4967898 39.9167077,31.7842643 39.1856269,27.9225306 L39.1856269,27.9225306 C37.2135731,17.5032023 36.3217654,16.4234479 35.0067269,13.7008954 L35.0067269,13.7008954 C30.4630423,4.29434057 23.6903423,11.8702483 24.2536423,17.5495351 L24.2536423,17.5495351 C24.7086154,22.1354698 27.3860538,38.657123 31.0626192,54.580983 L31.0626192,54.580983 C32.3302962,60.0724207 33.11025,68.8524762 30.7930615,69.6960344 L30.7930615,69.6960344 C27.4465154,70.9142835 26.3199154,68.6147691 23.2681192,63.6395386 L23.2681192,63.6395386 C20.8113654,59.6352813 17.0955,52.567523 14.7218808,48.4796653 L14.7218808,48.4796653 C12.2686538,44.2593564 8.07665385,35.242601 2.37613846,37.087853 L2.37613846,37.087853 C-1.13214231,38.2240125 -1.24248462,42.7636145 6.31520769,56.0606092 L6.31520769,56.0606092 C14.0643615,69.6940199 16.1810192,78.2494624 19.0418577,86.6372004 L19.0418577,86.6372004 C21.9037038,95.0229239 24.3518923,105.629598 28.2919692,116.487576 L28.2919692,116.487576 C30.9925846,123.922471 35.4042615,132.977501 42.8949423,136.153309 L42.8949423,136.153309 C53.2484769,140.53679 60.0136192,136.275184 69.0964538,132.06948 L69.0964538,132.06948 C75.8298538,128.952092 83.6062154,121.462807 88.4910038,115.737187 L88.4910038,115.737187 C94.9956577,108.114947 96.8946538,105.129003 104.595438,98.5119812 L104.595438,98.5119812 C111.222527,92.8160751 117.145742,89.0767202 124.69235,84.6660442 L124.69235,84.6660442 C131.948742,80.4271015 132.393135,75.9831867 128.542742,73.6831687 L128.542742,73.6831687 C123.402504,70.612617 112.718446,74.0588669 106.003688,79.549801 L106.003688,79.549801 C98.7110192,85.5141349 86.3320231,95.7677732 80.3735385,83.6890276 L80.3735385,83.6890276 C78.3939269,79.6757052 77.8301231,78.4000438 77.3373615,74.4577314 L77.3373615,74.4577314 C76.70705,69.4185415 77.8749654,65.848402 78.3233885,64.3581998 L78.3233885,64.3581998 C79.0922577,61.8189638 80.3236577,59.8921259 81.30515,56.7404919 L81.30515,56.7404919 C84.5917385,46.1801509 86.6373538,35.6238389 88.6774269,24.6837709 L88.6774269,24.6837709 C90.6026231,14.3581153 89.1470115,9.38288485 84.8738923,8.58515582 L84.8738923,8.58515582 C81.4341346,7.94304438 79.0685769,10.7683347 76.9856769,17.0338315 L76.9856769,17.0338315 C73.0622269,28.8240047 74.4266423,36.1642197 71.3501577,48.1981435 L71.3501577,48.1981435 C70.4926115,51.5461881 69.2229192,59.6337705 64.8238385,59.1805153 L64.8238385,59.1805153 C61.6309654,58.8521572 59.9400577,55.378712 60.6388923,45.6166037 L60.6388923,45.6166037 C61.1558385,38.3897024 60.1713231,24.7739183 60.6388923,17.8783969 L60.6388923,17.8783969 C61.0747192,11.4305908 59.9188962,0.430088759 55.4427269,0.430088759 L55.4427269,0.430088759 C55.3923423,0.430088759 55.3424615,0.431599609 55.2915731,0.434117693" id="path-5"></path>
        <path d="M55.2915731,0.434117693 C54.9474462,0.453255132 54.1256731,0.73326608 53.7417423,0.841543695 L53.7417423,0.841543695 C49.3749077,2.67168719 49.2811923,11.6834065 49.2811923,11.6834065 L49.2811923,11.6834065 C49.2907654,11.7947058 49.2081346,18.7209478 49.2343346,19.8500567 L49.2343346,19.8500567 C49.4222692,27.9688633 49.1189538,28.8114143 49.0937615,37.6851425 L49.0937615,37.6851425 C49.0841885,42.5954065 48.7410692,51.1543742 49.0937615,56.2701138 L49.0937615,56.2701138 C49.2418923,58.426601 45.8061654,59.6030499 45.0080731,56.5989756 L45.0080731,56.5989756 C43.4647923,50.7902592 41.8227577,43.2143515 41.4866923,41.3454295 L41.4866923,41.3454295 C40.7949115,37.4967898 39.9167077,31.7842643 39.1856269,27.9225306 L39.1856269,27.9225306 C37.2135731,17.5032023 36.3217654,16.4234479 35.0067269,13.7008954 L35.0067269,13.7008954 C30.4630423,4.29434057 23.6903423,11.8702483 24.2536423,17.5495351 L24.2536423,17.5495351 C24.7086154,22.1354698 27.3860538,38.657123 31.0626192,54.580983 L31.0626192,54.580983 C32.3302962,60.0724207 33.11025,68.8524762 30.7930615,69.6960344 L30.7930615,69.6960344 C27.4465154,70.9142835 26.3199154,68.6147691 23.2681192,63.6395386 L23.2681192,63.6395386 C20.8113654,59.6352813 17.0955,52.567523 14.7218808,48.4796653 L14.7218808,48.4796653 C12.2686538,44.2593564 8.07665385,35.242601 2.37613846,37.087853 L2.37613846,37.087853 C-1.13214231,38.2240125 -1.24248462,42.7636145 6.31520769,56.0606092 L6.31520769,56.0606092 C14.0643615,69.6940199 16.1810192,78.2494624 19.0418577,86.6372004 L19.0418577,86.6372004 C21.9037038,95.0229239 24.3518923,105.629598 28.2919692,116.487576 L28.2919692,116.487576 C30.9925846,123.922471 35.4042615,132.977501 42.8949423,136.153309 L42.8949423,136.153309 C53.2484769,140.53679 60.0136192,136.275184 69.0964538,132.06948 L69.0964538,132.06948 C75.8298538,128.952092 83.6062154,121.462807 88.4910038,115.737187 L88.4910038,115.737187 C94.9956577,108.114947 96.8946538,105.129003 104.595438,98.5119812 L104.595438,98.5119812 C111.222527,92.8160751 117.145742,89.0767202 124.69235,84.6660442 L124.69235,84.6660442 C131.948742,80.4271015 132.393135,75.9831867 128.542742,73.6831687 L128.542742,73.6831687 C123.402504,70.612617 112.718446,74.0588669 106.003688,79.549801 L106.003688,79.549801 C98.7110192,85.5141349 86.3320231,95.7677732 80.3735385,83.6890276 L80.3735385,83.6890276 C78.3939269,79.6757052 77.8301231,78.4000438 77.3373615,74.4577314 L77.3373615,74.4577314 C76.70705,69.4185415 77.8749654,65.848402 78.3233885,64.3581998 L78.3233885,64.3581998 C79.0922577,61.8189638 80.3236577,59.8921259 81.30515,56.7404919 L81.30515,56.7404919 C84.5917385,46.1801509 86.6373538,35.6238389 88.6774269,24.6837709 L88.6774269,24.6837709 C90.6026231,14.3581153 89.1470115,9.38288485 84.8738923,8.58515582 L84.8738923,8.58515582 C81.4341346,7.94304438 79.0685769,10.7683347 76.9856769,17.0338315 L76.9856769,17.0338315 C73.0622269,28.8240047 74.4266423,36.1642197 71.3501577,48.1981435 L71.3501577,48.1981435 C70.4926115,51.5461881 69.2229192,59.6337705 64.8238385,59.1805153 L64.8238385,59.1805153 C61.6309654,58.8521572 59.9400577,55.378712 60.6388923,45.6166037 L60.6388923,45.6166037 C61.1558385,38.3897024 60.1713231,24.7739183 60.6388923,17.8783969 L60.6388923,17.8783969 C61.0747192,11.4305908 59.9188962,0.430088759 55.4427269,0.430088759 L55.4427269,0.430088759 C55.3923423,0.430088759 55.3424615,0.431599609 55.2915731,0.434117693" id="path-7"></path>
        <path d="M55.2915731,0.434117693 C54.9474462,0.453255132 54.1256731,0.73326608 53.7417423,0.841543695 L53.7417423,0.841543695 C49.3749077,2.67168719 49.2811923,11.6834065 49.2811923,11.6834065 L49.2811923,11.6834065 C49.2907654,11.7947058 49.2081346,18.7209478 49.2343346,19.8500567 L49.2343346,19.8500567 C49.4222692,27.9688633 49.1189538,28.8114143 49.0937615,37.6851425 L49.0937615,37.6851425 C49.0841885,42.5954065 48.7410692,51.1543742 49.0937615,56.2701138 L49.0937615,56.2701138 C49.2418923,58.426601 45.8061654,59.6030499 45.0080731,56.5989756 L45.0080731,56.5989756 C43.4647923,50.7902592 41.8227577,43.2143515 41.4866923,41.3454295 L41.4866923,41.3454295 C40.7949115,37.4967898 39.9167077,31.7842643 39.1856269,27.9225306 L39.1856269,27.9225306 C37.2135731,17.5032023 36.3217654,16.4234479 35.0067269,13.7008954 L35.0067269,13.7008954 C30.4630423,4.29434057 23.6903423,11.8702483 24.2536423,17.5495351 L24.2536423,17.5495351 C24.7086154,22.1354698 27.3860538,38.657123 31.0626192,54.580983 L31.0626192,54.580983 C32.3302962,60.0724207 33.11025,68.8524762 30.7930615,69.6960344 L30.7930615,69.6960344 C27.4465154,70.9142835 26.3199154,68.6147691 23.2681192,63.6395386 L23.2681192,63.6395386 C20.8113654,59.6352813 17.0955,52.567523 14.7218808,48.4796653 L14.7218808,48.4796653 C12.2686538,44.2593564 8.07665385,35.242601 2.37613846,37.087853 L2.37613846,37.087853 C-1.13214231,38.2240125 -1.24248462,42.7636145 6.31520769,56.0606092 L6.31520769,56.0606092 C14.0643615,69.6940199 16.1810192,78.2494624 19.0418577,86.6372004 L19.0418577,86.6372004 C21.9037038,95.0229239 24.3518923,105.629598 28.2919692,116.487576 L28.2919692,116.487576 C30.9925846,123.922471 35.4042615,132.977501 42.8949423,136.153309 L42.8949423,136.153309 C53.2484769,140.53679 60.0136192,136.275184 69.0964538,132.06948 L69.0964538,132.06948 C75.8298538,128.952092 83.6062154,121.462807 88.4910038,115.737187 L88.4910038,115.737187 C94.9956577,108.114947 96.8946538,105.129003 104.595438,98.5119812 L104.595438,98.5119812 C111.222527,92.8160751 117.145742,89.0767202 124.69235,84.6660442 L124.69235,84.6660442 C131.948742,80.4271015 132.393135,75.9831867 128.542742,73.6831687 L128.542742,73.6831687 C123.402504,70.612617 112.718446,74.0588669 106.003688,79.549801 L106.003688,79.549801 C98.7110192,85.5141349 86.3320231,95.7677732 80.3735385,83.6890276 L80.3735385,83.6890276 C78.3939269,79.6757052 77.8301231,78.4000438 77.3373615,74.4577314 L77.3373615,74.4577314 C76.70705,69.4185415 77.8749654,65.848402 78.3233885,64.3581998 L78.3233885,64.3581998 C79.0922577,61.8189638 80.3236577,59.8921259 81.30515,56.7404919 L81.30515,56.7404919 C84.5917385,46.1801509 86.6373538,35.6238389 88.6774269,24.6837709 L88.6774269,24.6837709 C90.6026231,14.3581153 89.1470115,9.38288485 84.8738923,8.58515582 L84.8738923,8.58515582 C81.4341346,7.94304438 79.0685769,10.7683347 76.9856769,17.0338315 L76.9856769,17.0338315 C73.0622269,28.8240047 74.4266423,36.1642197 71.3501577,48.1981435 L71.3501577,48.1981435 C70.4926115,51.5461881 69.2229192,59.6337705 64.8238385,59.1805153 L64.8238385,59.1805153 C61.6309654,58.8521572 59.9400577,55.378712 60.6388923,45.6166037 L60.6388923,45.6166037 C61.1558385,38.3897024 60.1713231,24.7739183 60.6388923,17.8783969 L60.6388923,17.8783969 C61.0747192,11.4305908 59.9188962,0.430088759 55.4427269,0.430088759 L55.4427269,0.430088759 C55.3923423,0.430088759 55.3424615,0.431599609 55.2915731,0.434117693" id="path-9"></path>
    </defs>
    <g id="Page-1" stroke="none" stroke-width="1" fill="none" fill-rule="evenodd">
        <g id="Homepage3" transform="translate(-462.000000, -4457.000000)">
            <g id="Logo-Tagline-horizontal" transform="translate(462.000000, 4457.000000)">
                <g id="Logo-(Horizontal)">
                    <g id="Group-19-Copy">
                        <path d="M53.7259919,0.910849408 C49.3548797,2.74057483 49.2605682,11.7472535 49.2605682,11.7472535 C49.270655,11.8590001 49.1874389,18.7817549 49.2136646,19.909792 C49.4017833,28.0250143 49.0981708,28.8666377 49.0724495,37.7358982 C49.062867,42.6436899 48.7204204,51.1988517 49.0724495,56.312519 C49.2212297,58.4674171 45.7826416,59.6432736 44.9837675,56.6407118 C43.4384707,50.8349201 41.7948276,43.2628267 41.458433,41.3948457 C40.766479,37.5481437 39.8869105,31.837991 39.1551136,27.9782015 C37.1811281,17.5641192 36.2884468,16.4849084 34.9721202,13.76423 C30.4239848,4.36190786 23.6446506,11.9345046 24.2090067,17.610932 C24.6639211,22.1940544 27.3439823,38.7078926 31.024149,54.6237353 C32.2930677,60.1119048 33.0742899,68.8875397 30.7548316,69.7311765 C27.4050074,70.9488123 26.2767995,68.6499523 23.2220139,63.6772267 C20.7628535,59.6754889 17.0433483,52.6107856 14.667404,48.5254895 C12.211774,44.3068021 8.01566768,35.2950898 2.30956834,37.1394127 C-1.20214897,38.2750002 -1.31259937,42.8123166 6.2524961,56.1026165 C14.0092407,69.7291631 16.1279717,78.280298 18.9916125,86.6633096 C21.8567663,95.0453145 24.3063443,105.646648 28.250785,116.49916 C30.9540458,123.930311 35.3700442,132.980783 42.8685668,136.154991 C53.2317389,140.536265 60.0040124,136.276805 69.0957441,132.073219 C75.8352355,128.9574 83.6187101,121.471885 88.5092921,115.749652 C95.0198133,108.130746 96.9206696,105.146305 104.628998,98.5321117 C111.262578,92.8395767 117.191595,89.1016012 124.745595,84.6931458 C132.009095,80.4563374 132.453923,76.0151634 128.599759,73.7163034 C123.453981,70.6472977 112.759962,74.0918124 106.039131,79.5799819 C98.7388142,85.5413129 86.3481965,95.7897887 80.3833709,83.7171245 C78.4018202,79.7053194 77.8379685,78.4308036 77.3442199,74.4904761 C76.7132909,69.45332 77.881846,65.8854813 78.3312127,64.3960294 C79.1008351,61.8580719 80.3339456,59.9322041 81.315895,56.7816535 C84.6062072,46.2266295 86.653322,35.6756324 88.6953935,24.7415758 C90.6224755,14.4211191 89.1654381,9.44839352 84.8881331,8.65106613 C81.4445016,8.00927798 79.0776354,10.8326425 76.9916864,17.0949847 C73.0648976,28.8792218 74.4306495,36.2162445 71.3516556,48.2436061 C70.4927651,51.5904683 69.2218291,59.6734754 64.8184392,59.2209519 C61.6224385,58.8922556 59.9303788,55.4210627 60.6293936,45.663366 C61.1468462,38.4406067 60.1613664,24.8316779 60.6293936,17.9391249 C61.0701865,11.4230876 59.8829709,0.253960365 55.2768364,0.504131901 C54.9323724,0.522756341 54.1097944,0.802626309 53.7259919,0.910849408" id="Fill-1" fill="#51CFE1"></path>
                        <g id="Group-18">
                            <g id="Group-5">
                                <mask id="mask-2" fill="white">
                                    <use xlink:href="#path-1"></use>
                                </mask>
                                <g id="Clip-4"></g>
                                <path d="M88.9201296,-18.2686999 C88.9201296,-18.2686999 102.741133,31.3753275 84.9130412,71.8459746 C74.8013527,94.7998217 51.7322527,110.449714 24.7749719,128.448979 L4.11173731,78.5420637 C4.11173731,78.5420637 57.8665796,70.3436856 66.8818988,-7.75519531" id="Fill-3" fill="#0067DD" mask="url(#mask-2)"></path>
                            </g>
                            <g id="Group-8">
                                <mask id="mask-4" fill="white">
                                    <use xlink:href="#path-3"></use>
                                </mask>
                                <g id="Clip-7"></g>
                                <path d="M12.1748377,146.049077 C12.1748377,146.049077 100.860326,141.452567 118.834534,55.6513702 L88.51408,33.0258812 C88.51408,33.0258812 105.440288,99.0278863 16.2403723,120.469876 C12.1189108,121.46049 16.5517492,144.670678 12.1748377,146.049077" id="Fill-6" fill="#F8059F" mask="url(#mask-4)"></path>
                            </g>
                            <g id="Group-11">
                                <mask id="mask-6" fill="white">
                                    <use xlink:href="#path-5"></use>
                                </mask>
                                <g id="Clip-10"></g>
                                <path d="M54.3188477,69.0458651 C54.3188477,69.0458651 29.3648592,125.108489 -14.1079946,101.270291 C-14.1079946,101.270291 23.7308515,104.581067 54.3188477,69.0458651" id="Fill-9" fill="#FFF300" mask="url(#mask-6)"></path>
                            </g>
                            <g id="Group-14">
                                <mask id="mask-8" fill="white">
                                    <use xlink:href="#path-7"></use>
                                </mask>
                                <g id="Clip-13"></g>
                                <path d="M65.8898258,33.9973077 C65.8898258,33.9973077 71.8190873,61.9460264 48.9132335,64.841823 C48.9132335,64.841823 64.0820258,55.7505323 65.8898258,33.9973077" id="Fill-12" fill="#FFCB00" mask="url(#mask-8)"></path>
                            </g>
                            <g id="Group-17">
                                <mask id="mask-10" fill="white">
                                    <use xlink:href="#path-9"></use>
                                </mask>
                                <g id="Clip-16"></g>
                                <path d="M0.106664231,97.3442953 C0.106664231,97.3442953 31.2307527,125.202867 81.3140681,79.2639481 C81.3140681,79.2639481 34.1455027,157.914793 0.106664231,97.3442953" id="Fill-15" fill="#FFF400" mask="url(#mask-10)"></path>
                            </g>
                        </g>
                    </g>
                    <path d="M131.056213,69.500008 L131.056213,45.374071 C132.269231,43.9977592 133.967456,42.2976092 137.283037,42.2976092 C140.760355,42.2976092 142.943787,43.6739211 142.943787,47.7218971 L142.943787,69.500008 L157.5,69.500008 L157.5,41.5689736 C157.5,34.7683739 153.537475,29.4250455 144.480276,29.4250455 C137.606509,29.4250455 133.320513,32.2586287 131.056213,34.8493334 L131.056213,15.500008 L116.5,15.500008 L116.5,69.500008 L131.056213,69.500008 Z M172.495935,70.500008 C177.373984,70.500008 182.170732,68.5591796 184.365854,65.8096727 L184.365854,69.5295938 L199,69.5295938 L199,45.9161816 C199,32.8964578 189.487805,29.500008 179.731707,29.500008 C173.796748,29.500008 166.479675,31.1982329 161.195122,35.4033611 L166.154472,44.3796925 C169.243902,42.0345248 173.390244,40.5789035 177.04878,40.5789035 C181.845528,40.5789035 184.365854,42.6814676 184.365854,45.4309745 L184.365854,49.8787063 C182.252033,47.2100672 177.617886,45.5927102 172.495935,45.5927102 C166.642276,45.5927102 159,47.9378779 159,57.6420199 C159,66.5374834 166.642276,70.500008 172.495935,70.500008 Z M178.171642,61.000008 C175.708955,61.000008 173,60.2595017 173,57.7911473 C173,55.3227929 175.708955,54.500008 178.171642,54.500008 C180.470149,54.500008 183.014925,55.2405144 184,56.6392486 L184,58.8607675 C183.014925,60.2595017 180.470149,61.000008 178.171642,61.000008 Z M217.488636,84.000008 L217.488636,65.1377106 C220.708333,68.829905 224.410985,70.1944116 228.435606,70.1944116 C238.094697,70.1944116 245.5,63.1310832 245.5,49.8070773 C245.5,36.5633365 238.094697,29.500008 228.435606,29.500008 C224.410985,29.500008 220.627841,30.8645147 217.488636,34.5567091 L217.488636,30.4631892 L203,30.4631892 L203,84.000008 L217.488636,84.000008 Z M223.865854,57.500008 C222.042683,57.500008 219.268293,56.4338705 218,54.7936588 L218,44.7063573 C219.347561,42.984135 222.042683,42.000008 223.865854,42.000008 C227.670732,42.000008 231,44.7883678 231,49.7090028 C231,54.7116483 227.670732,57.500008 223.865854,57.500008 Z M263.720109,70.500008 C268.610054,70.500008 271.976902,69.2918741 273.5,67.9226556 L270.934783,56.9689076 C270.61413,57.2910766 269.331522,57.693788 268.048913,57.693788 C266.125,57.693788 264.842391,56.0829427 264.842391,54.069386 L264.842391,43.1961803 L272.69837,43.1961803 L272.69837,30.631587 L264.842391,30.631587 L264.842391,20.000008 L250.413043,20.000008 L250.413043,30.631587 L244,30.631587 L244,43.1961803 L250.413043,43.1961803 L250.413043,58.2575838 C250.413043,66.3923525 255.142663,70.500008 263.720109,70.500008 Z M282.25,27.000008 C286.824257,27.000008 290.5,23.3242655 290.5,18.750008 C290.5,14.1757506 286.824257,10.500008 282.25,10.500008 C277.675743,10.500008 274,14.1757506 274,18.750008 C274,23.3242655 277.675743,27.000008 282.25,27.000008 Z M289,69.500008 L289,31.000008 L274.5,31.000008 L274.5,69.500008 L289,69.500008 Z M308.066474,69.500008 L308.066474,60.6754203 L310.898844,56.8703229 L317.615607,69.500008 L335.5,69.500008 L321.176301,48.2076542 L334.609827,30.3965598 L317.049133,30.3965598 L308.066474,44.3215973 L308.066474,15.500008 L293.5,15.500008 L293.5,69.500008 L308.066474,69.500008 Z" id="haptik" fill="#174D8C" fill-rule="nonzero"></path>
                </g>
                <path d="M129.137729,100.725003 L129.812704,98.9618028 L134.165604,98.9618028 L134.840579,100.725003 L136.603779,100.725003 L132.994729,91.5370776 L130.983579,91.5370776 L127.374529,100.725003 L129.137729,100.725003 Z M133.711029,97.5429778 L130.267279,97.5429778 L131.989154,92.9008026 L133.711029,97.5429778 Z M139.22103,100.725003 L139.22103,91.5370776 L137.609355,91.5370776 L137.609355,100.725003 L139.22103,100.725003 Z M148.519155,100.725003 L148.519155,92.9559026 L151.301705,92.9559026 L151.301705,91.5370776 L144.12493,91.5370776 L144.12493,92.9559026 L146.90748,92.9559026 L146.90748,100.725003 L148.519155,100.725003 Z M154.07048,100.725003 L154.07048,96.0828277 C154.414855,95.6282527 155.048505,95.1874527 155.77858,95.1874527 C156.591305,95.1874527 157.12853,95.5042777 157.12853,96.5374027 L157.12853,100.725003 L158.574905,100.725003 L158.574905,96.0139527 C158.574905,94.6502277 157.858605,93.9063777 156.426005,93.9063777 C155.379105,93.9063777 154.51128,94.4573777 154.07048,94.9808277 L154.07048,91.5370776 L152.624105,91.5370776 L152.624105,100.725003 L154.07048,100.725003 Z M162.36303,100.890303 C163.24463,100.890303 164.01603,100.573478 164.51193,100.008703 L164.51193,100.725003 L165.958305,100.725003 L165.958305,96.3170027 C165.958305,94.5262527 164.663455,93.9063777 163.18953,93.9063777 C162.128855,93.9063777 161.164605,94.2507527 160.393205,94.9808277 L160.98553,95.9864027 C161.56408,95.4216277 162.211505,95.1461277 162.955355,95.1461277 C163.87828,95.1461277 164.51193,95.6144777 164.51193,96.3858777 L164.51193,97.3776778 C164.029805,96.8129028 163.258405,96.5236277 162.36303,96.5236277 C161.274805,96.5236277 160.04883,97.1572778 160.04883,98.6863028 C160.04883,100.160228 161.274805,100.890303 162.36303,100.890303 Z M162.927805,99.8985029 C162.11508,99.8985029 161.50898,99.4301528 161.50898,98.7138528 C161.50898,97.9837778 162.11508,97.5154278 162.927805,97.5154278 C163.561455,97.5154278 164.18133,97.7496028 164.51193,98.2041778 L164.51193,99.2097528 C164.18133,99.6643278 163.561455,99.8985029 162.927805,99.8985029 Z M169.829081,100.890303 C170.504056,100.890303 170.931081,100.711228 171.192806,100.463278 L170.848431,99.3750528 C170.738231,99.4990278 170.476506,99.6092278 170.201006,99.6092278 C169.787756,99.6092278 169.567356,99.2786278 169.567356,98.8240528 L169.567356,95.3389777 L170.917306,95.3389777 L170.917306,94.0716777 L169.567356,94.0716777 L169.567356,92.2533776 L168.120981,92.2533776 L168.120981,94.0716777 L167.01898,94.0716777 L167.01898,95.3389777 L168.120981,95.3389777 L168.120981,99.1822028 C168.120981,100.284203 168.713306,100.890303 169.829081,100.890303 Z M177.419106,100.725003 L177.419106,97.2950278 L179.843506,97.2950278 C181.758231,97.2950278 182.846456,95.9726277 182.846456,94.4160527 C182.846456,92.8594776 181.772006,91.5370776 179.843506,91.5370776 L175.807431,91.5370776 L175.807431,100.725003 L177.419106,100.725003 Z M179.623106,95.8762027 L177.419106,95.8762027 L177.419106,92.9559026 L179.623106,92.9559026 C180.532256,92.9559026 181.193456,93.5344526 181.193456,94.4160527 C181.193456,95.2976527 180.532256,95.8762027 179.623106,95.8762027 Z M186.276431,100.890303 C187.323331,100.890303 188.149831,100.380628 188.631956,99.8434029 L188.631956,100.725003 L190.078331,100.725003 L190.078331,94.0716777 L188.631956,94.0716777 L188.631956,98.7414028 C188.287581,99.1959778 187.653931,99.6092278 186.923856,99.6092278 C186.111131,99.6092278 185.587681,99.2924028 185.587681,98.2592778 L185.587681,94.0716777 L184.141306,94.0716777 L184.141306,98.7827278 C184.141306,100.146453 184.843831,100.890303 186.276431,100.890303 Z M193.949106,100.890303 C194.624081,100.890303 195.051106,100.711228 195.312831,100.463278 L194.968456,99.3750528 C194.858256,99.4990278 194.596531,99.6092278 194.321031,99.6092278 C193.907781,99.6092278 193.687381,99.2786278 193.687381,98.8240528 L193.687381,95.3389777 L195.037331,95.3389777 L195.037331,94.0716777 L193.687381,94.0716777 L193.687381,92.2533776 L192.241006,92.2533776 L192.241006,94.0716777 L191.139006,94.0716777 L191.139006,95.3389777 L192.241006,95.3389777 L192.241006,99.1822028 C192.241006,100.284203 192.833331,100.890303 193.949106,100.890303 Z M198.618832,100.890303 C200.409582,100.890303 201.387607,99.9949279 201.387607,98.8240528 C201.387607,97.2537028 199.968782,96.9231028 198.811682,96.6751528 C198.026507,96.4960777 197.365306,96.3170027 197.365306,95.8073277 C197.365306,95.3389777 197.847432,95.0634777 198.605057,95.0634777 C199.431557,95.0634777 200.175407,95.4078527 200.574882,95.8624277 L201.180982,94.8430777 C200.574882,94.3058527 199.720832,93.9063777 198.591282,93.9063777 C196.910731,93.9063777 195.974031,94.8430777 195.974031,95.9313027 C195.974031,97.4190028 197.337756,97.7220528 198.481082,97.9700028 C199.293807,98.1490778 199.996332,98.3557028 199.996332,98.9342528 C199.996332,99.4301528 199.555532,99.7469779 198.687707,99.7469779 C197.819882,99.7469779 196.896956,99.2924028 196.428606,98.8102778 L195.767406,99.8571779 C196.456156,100.532153 197.489281,100.890303 198.618832,100.890303 Z M210.644407,100.725003 L210.644407,96.9093278 L214.198357,91.5370776 L212.352507,91.5370776 L209.845457,95.4767277 L207.310857,91.5370776 L205.465007,91.5370776 L209.032732,96.9093278 L209.032732,100.725003 L210.644407,100.725003 Z M218.165557,100.890303 C220.300682,100.890303 221.595532,99.3061778 221.595532,97.3914528 C221.595532,95.4905027 220.300682,93.9063777 218.165557,93.9063777 C216.057982,93.9063777 214.749357,95.4905027 214.749357,97.3914528 C214.749357,99.3061778 216.057982,100.890303 218.165557,100.890303 Z M218.165557,99.6092278 C216.939582,99.6092278 216.250832,98.5761028 216.250832,97.3914528 C216.250832,96.2205777 216.939582,95.1874527 218.165557,95.1874527 C219.405307,95.1874527 220.094057,96.2205777 220.094057,97.3914528 C220.094057,98.5761028 219.405307,99.6092278 218.165557,99.6092278 Z M225.190807,100.890303 C226.237707,100.890303 227.064207,100.380628 227.546332,99.8434029 L227.546332,100.725003 L228.992708,100.725003 L228.992708,94.0716777 L227.546332,94.0716777 L227.546332,98.7414028 C227.201957,99.1959778 226.568307,99.6092278 225.838232,99.6092278 C225.025507,99.6092278 224.502057,99.2924028 224.502057,98.2592778 L224.502057,94.0716777 L223.055682,94.0716777 L223.055682,98.7827278 C223.055682,100.146453 223.758207,100.890303 225.190807,100.890303 Z M232.312483,100.725003 L232.312483,96.1930277 C232.601758,95.7246777 233.414483,95.3114277 234.020583,95.3114277 C234.199658,95.3114277 234.351183,95.3252027 234.475158,95.3527527 L234.475158,93.9201527 C233.607333,93.9201527 232.808383,94.4160527 232.312483,95.0497027 L232.312483,94.0716777 L230.866108,94.0716777 L230.866108,100.725003 L232.312483,100.725003 Z M243.566658,100.890303 C245.495158,100.890303 246.624708,99.9260529 247.327233,98.8240528 L245.949733,98.1215278 C245.508933,98.8929278 244.627333,99.4577028 243.566658,99.4577028 C241.817233,99.4577028 240.467283,98.0664278 240.467283,96.1379277 C240.467283,94.2094277 241.817233,92.8181526 243.566658,92.8181526 C244.627333,92.8181526 245.508933,93.3967026 245.949733,94.1543277 L247.327233,93.4518026 C246.638483,92.3498026 245.495158,91.3855526 243.566658,91.3855526 C240.921858,91.3855526 238.814283,93.3140526 238.814283,96.1379277 C238.814283,98.9618028 240.921858,100.890303 243.566658,100.890303 Z M250.715883,100.890303 C251.762783,100.890303 252.589283,100.380628 253.071408,99.8434029 L253.071408,100.725003 L254.517783,100.725003 L254.517783,94.0716777 L253.071408,94.0716777 L253.071408,98.7414028 C252.727033,99.1959778 252.093383,99.6092278 251.363308,99.6092278 C250.550583,99.6092278 250.027133,99.2924028 250.027133,98.2592778 L250.027133,94.0716777 L248.580758,94.0716777 L248.580758,98.7827278 C248.580758,100.146453 249.283283,100.890303 250.715883,100.890303 Z M258.664059,100.890303 C260.454809,100.890303 261.432834,99.9949279 261.432834,98.8240528 C261.432834,97.2537028 260.014009,96.9231028 258.856909,96.6751528 C258.071733,96.4960777 257.410533,96.3170027 257.410533,95.8073277 C257.410533,95.3389777 257.892658,95.0634777 258.650284,95.0634777 C259.476784,95.0634777 260.220634,95.4078527 260.620109,95.8624277 L261.226209,94.8430777 C260.620109,94.3058527 259.766059,93.9063777 258.636509,93.9063777 C256.955958,93.9063777 256.019258,94.8430777 256.019258,95.9313027 C256.019258,97.4190028 257.382983,97.7220528 258.526309,97.9700028 C259.339034,98.1490778 260.041559,98.3557028 260.041559,98.9342528 C260.041559,99.4301528 259.600759,99.7469779 258.732934,99.7469779 C257.865108,99.7469779 256.942183,99.2924028 256.473833,98.8102778 L255.812633,99.8571779 C256.501383,100.532153 257.534508,100.890303 258.664059,100.890303 Z M264.890359,100.890303 C265.565334,100.890303 265.992359,100.711228 266.254084,100.463278 L265.909709,99.3750528 C265.799509,99.4990278 265.537784,99.6092278 265.262284,99.6092278 C264.849034,99.6092278 264.628634,99.2786278 264.628634,98.8240528 L264.628634,95.3389777 L265.978584,95.3389777 L265.978584,94.0716777 L264.628634,94.0716777 L264.628634,92.2533776 L263.182259,92.2533776 L263.182259,94.0716777 L262.080259,94.0716777 L262.080259,95.3389777 L263.182259,95.3389777 L263.182259,99.1822028 C263.182259,100.284203 263.774584,100.890303 264.890359,100.890303 Z M270.290159,100.890303 C272.425284,100.890303 273.720134,99.3061778 273.720134,97.3914528 C273.720134,95.4905027 272.425284,93.9063777 270.290159,93.9063777 C268.182584,93.9063777 266.873959,95.4905027 266.873959,97.3914528 C266.873959,99.3061778 268.182584,100.890303 270.290159,100.890303 Z M270.290159,99.6092278 C269.064184,99.6092278 268.375434,98.5761028 268.375434,97.3914528 C268.375434,96.2205777 269.064184,95.1874527 270.290159,95.1874527 C271.529909,95.1874527 272.218659,96.2205777 272.218659,97.3914528 C272.218659,98.5761028 271.529909,99.6092278 270.290159,99.6092278 Z M276.626659,100.725003 L276.626659,96.0828277 C276.929709,95.6420277 277.522034,95.1874527 278.155684,95.1874527 C278.940859,95.1874527 279.257684,95.6695777 279.257684,96.3858777 L279.257684,100.725003 L280.704059,100.725003 L280.704059,96.0690527 C280.993334,95.6420277 281.599434,95.1874527 282.246859,95.1874527 C283.018259,95.1874527 283.335084,95.6695777 283.335084,96.3858777 L283.335084,100.725003 L284.781459,100.725003 L284.781459,95.9175277 C284.781459,94.5675777 284.092709,93.9063777 282.866734,93.9063777 C281.874934,93.9063777 280.993334,94.5262527 280.607634,95.1323527 C280.387234,94.4022777 279.781134,93.9063777 278.789334,93.9063777 C277.783759,93.9063777 276.902159,94.5675777 276.626659,94.9808277 L276.626659,94.0716777 L275.180284,94.0716777 L275.180284,100.725003 L276.626659,100.725003 Z M289.726685,100.890303 C290.78736,100.890303 291.765385,100.559703 292.426585,99.9260529 L291.765385,98.9755778 C291.297035,99.4439278 290.525635,99.7056529 289.87821,99.7056529 C288.624684,99.7056529 287.867059,98.8791528 287.756859,97.8735778 L292.894935,97.8735778 L292.894935,97.5292028 C292.894935,95.4354027 291.61386,93.9063777 289.616485,93.9063777 C287.646659,93.9063777 286.241609,95.4629527 286.241609,97.3914528 C286.241609,99.4990278 287.729309,100.890303 289.726685,100.890303 Z M291.489885,96.8542278 L287.743084,96.8542278 C287.811959,96.0415027 288.376734,95.0910277 289.616485,95.0910277 C290.92511,95.0910277 291.462335,96.0690527 291.489885,96.8542278 Z M295.77391,100.725003 L295.77391,96.1930277 C296.063185,95.7246777 296.87591,95.3114277 297.48201,95.3114277 C297.661085,95.3114277 297.81261,95.3252027 297.936585,95.3527527 L297.936585,93.9201527 C297.06876,93.9201527 296.26981,94.4160527 295.77391,95.0497027 L295.77391,94.0716777 L294.327535,94.0716777 L294.327535,100.725003 L295.77391,100.725003 Z M301.380335,100.890303 C303.171085,100.890303 304.14911,99.9949279 304.14911,98.8240528 C304.14911,97.2537028 302.730285,96.9231028 301.573185,96.6751528 C300.78801,96.4960777 300.12681,96.3170027 300.12681,95.8073277 C300.12681,95.3389777 300.608935,95.0634777 301.36656,95.0634777 C302.19306,95.0634777 302.93691,95.4078527 303.336385,95.8624277 L303.942485,94.8430777 C303.336385,94.3058527 302.482335,93.9063777 301.352785,93.9063777 C299.672235,93.9063777 298.735535,94.8430777 298.735535,95.9313027 C298.735535,97.4190028 300.09926,97.7220528 301.242585,97.9700028 C302.05531,98.1490778 302.757835,98.3557028 302.757835,98.9342528 C302.757835,99.4301528 302.317035,99.7469779 301.44921,99.7469779 C300.581385,99.7469779 299.65846,99.2924028 299.19011,98.8102778 L298.52891,99.8571779 C299.21766,100.532153 300.250785,100.890303 301.380335,100.890303 Z M310.802435,100.725003 L310.802435,96.7578028 L315.38951,96.7578028 L315.38951,95.3389777 L310.802435,95.3389777 L310.802435,92.9559026 L315.485935,92.9559026 L315.485935,91.5370776 L309.19076,91.5370776 L309.19076,100.725003 L310.802435,100.725003 Z M317.607285,92.9696776 C318.103185,92.9696776 318.50266,92.5702026 318.50266,92.0743026 C318.50266,91.5784026 318.103185,91.1789276 317.607285,91.1789276 C317.12516,91.1789276 316.71191,91.5784026 316.71191,92.0743026 C316.71191,92.5702026 317.12516,92.9696776 317.607285,92.9696776 Z M318.33736,100.725003 L318.33736,94.0716777 L316.890985,94.0716777 L316.890985,100.725003 L318.33736,100.725003 Z M321.657136,100.725003 L321.657136,96.1930277 C321.946411,95.7246777 322.759136,95.3114277 323.365236,95.3114277 C323.544311,95.3114277 323.695836,95.3252027 323.819811,95.3527527 L323.819811,93.9201527 C322.951986,93.9201527 322.153036,94.4160527 321.657136,95.0497027 L321.657136,94.0716777 L320.210761,94.0716777 L320.210761,100.725003 L321.657136,100.725003 Z M327.263561,100.890303 C329.054311,100.890303 330.032336,99.9949279 330.032336,98.8240528 C330.032336,97.2537028 328.613511,96.9231028 327.456411,96.6751528 C326.671236,96.4960777 326.010036,96.3170027 326.010036,95.8073277 C326.010036,95.3389777 326.492161,95.0634777 327.249786,95.0634777 C328.076286,95.0634777 328.820136,95.4078527 329.219611,95.8624277 L329.825711,94.8430777 C329.219611,94.3058527 328.365561,93.9063777 327.236011,93.9063777 C325.555461,93.9063777 324.618761,94.8430777 324.618761,95.9313027 C324.618761,97.4190028 325.982486,97.7220528 327.125811,97.9700028 C327.938536,98.1490778 328.641061,98.3557028 328.641061,98.9342528 C328.641061,99.4301528 328.200261,99.7469779 327.332436,99.7469779 C326.464611,99.7469779 325.541686,99.2924028 325.073336,98.8102778 L324.412136,99.8571779 C325.100886,100.532153 326.134011,100.890303 327.263561,100.890303 Z M333.489861,100.890303 C334.164836,100.890303 334.591861,100.711228 334.853586,100.463278 L334.509211,99.3750528 C334.399011,99.4990278 334.137286,99.6092278 333.861786,99.6092278 C333.448536,99.6092278 333.228136,99.2786278 333.228136,98.8240528 L333.228136,95.3389777 L334.578086,95.3389777 L334.578086,94.0716777 L333.228136,94.0716777 L333.228136,92.2533776 L331.781761,92.2533776 L331.781761,94.0716777 L330.679761,94.0716777 L330.679761,95.3389777 L331.781761,95.3389777 L331.781761,99.1822028 C331.781761,100.284203 332.374086,100.890303 333.489861,100.890303 Z" id="AIThatPutsYourCustomersFirst" fill="#000000" fill-rule="nonzero"></path>
            </g>
        </g>
    </g>
</svg>